<svg id="Capa_1" enable-background="new 0 0 551.13 551.13" height="512" viewBox="0 0 551.13 551.13" width="512" xmlns="http://www.w3.org/2000/svg"><path d="m275.565 0c-151.944 0-275.565 123.621-275.565 275.565s123.621 275.565 275.565 275.565 275.565-123.621 275.565-275.565-123.621-275.565-275.565-275.565zm157.661 93.55-157.661 157.661-157.661-157.661c42.321-36.708 97.37-59.105 157.661-59.105s115.34 22.397 157.661 59.105zm-398.781 182.015c0-60.291 22.397-115.339 59.105-157.661l157.661 157.661-157.661 157.661c-36.708-42.321-59.105-97.37-59.105-157.661zm83.459 182.015 157.661-157.661 157.66 157.661c-42.321 36.708-97.37 59.105-157.661 59.105s-115.339-22.397-157.66-59.105zm339.676-24.354-157.661-157.661 157.661-157.661c36.708 42.321 59.105 97.37 59.105 157.661s-22.398 115.34-59.105 157.661z"/></svg>