<?xml version="1.0" encoding="iso-8859-1"?>
<!-- Generator: Adobe Illustrator 19.0.0, SVG Export Plug-In . SVG Version: 6.00 Build 0)  -->
<svg version="1.1" id="Capa_1" xmlns="http://www.w3.org/2000/svg" xmlns:xlink="http://www.w3.org/1999/xlink" x="0px" y="0px"
	 viewBox="0 0 435.737 435.737" style="enable-background:new 0 0 435.737 435.737;" xml:space="preserve">
<path style="fill:#fff;" d="M397.584,56.432c-25.078-25.078-59.037-39.184-95.086-39.184c-30.825,0-60.082,10.449-84.114,29.257
	c-24.033-18.808-53.29-29.257-84.114-29.257c-36.049,0-70.008,14.106-95.086,39.184c-52.245,52.245-52.245,137.404,0,189.649
	L206.89,413.787c3.135,3.135,7.314,4.702,10.971,4.702c4.18,0,7.837-1.567,10.971-4.702l167.706-167.184
	c25.078-25.6,39.184-59.559,39.184-95.086C436.245,115.468,422.661,82.032,397.584,56.432z"/>
<g>
</g>
<g>
</g>
<g>
</g>
<g>
</g>
<g>
</g>
<g>
</g>
<g>
</g>
<g>
</g>
<g>
</g>
<g>
</g>
<g>
</g>
<g>
</g>
<g>
</g>
<g>
</g>
<g>
</g>
</svg>
